HIERARCHY
ROOT Hips
{
	OFFSET 0.000000 0.000000 0.000000
	CHANNELS 6 Xposition Yposition Zposition Xrotation Yrotation Zrotation
	JOINT Spine
	{
		OFFSET 0.000000 0.042231 0.063346
		CHANNELS 3 Xrotation Yrotation Zrotation
		JOINT Spine1
		{
			OFFSET 0.000000 0.014667 0.083179
			CHANNELS 3 Xrotation Yrotation Zrotation
			JOINT Spine2
			{
				OFFSET 0.000000 0.007361 0.084141
				CHANNELS 3 Xrotation Yrotation Zrotation
				JOINT Spine3
				{
					OFFSET 0.000000 0.000000 0.084462
					CHANNELS 3 Xrotation Yrotation Zrotation
					JOINT Neck
					{
						OFFSET 0.000000 -0.031673 0.221713
						CHANNELS 3 Xrotation Yrotation Zrotation
						JOINT Head
						{
							OFFSET 0.000000 -0.020167 0.114371
							CHANNELS 3 Xrotation Yrotation Zrotation
							End Site
							{
								OFFSET 0.000000 0.000000 0.000000
							}
						}
					}
					JOINT RightShoulder
					{
						OFFSET -0.029161 -0.048602 0.157471
						CHANNELS 3 Xrotation Yrotation Zrotation
						JOINT RightArm
						{
							OFFSET -0.144834 0.000000 0.000000
							CHANNELS 3 Xrotation Yrotation Zrotation
							JOINT RightForeArm
							{
								OFFSET -0.274949 0.000000 0.000000
								CHANNELS 3 Xrotation Yrotation Zrotation
								JOINT RightHand
								{
									OFFSET -0.254725 0.000000 0.000000
									CHANNELS 3 Xrotation Yrotation Zrotation
									JOINT RightHandEnd
									{
										OFFSET -0.068160 0.000000 0.000000
										CHANNELS 3 Xrotation Yrotation Zrotation
										End Site
										{
											OFFSET 0.000000 0.000000 0.000000
										}
									}
									JOINT RightHandThumb1
									{
										OFFSET -0.027264 -0.045440 -0.018176
										CHANNELS 3 Xrotation Yrotation Zrotation
										End Site
										{
											OFFSET 0.000000 0.000000 0.000000
										}
									}
								}
							}
						}
					}
					JOINT LeftShoulder
					{
						OFFSET 0.029161 -0.048602 0.157471
						CHANNELS 3 Xrotation Yrotation Zrotation
						JOINT LeftArm
						{
							OFFSET 0.144834 0.000000 0.000000
							CHANNELS 3 Xrotation Yrotation Zrotation
							JOINT LeftForeArm
							{
								OFFSET 0.274949 0.000000 0.000000
								CHANNELS 3 Xrotation Yrotation Zrotation
								JOINT LeftHand
								{
									OFFSET 0.254725 0.000000 0.000000
									CHANNELS 3 Xrotation Yrotation Zrotation
									JOINT LeftHandEnd
									{
										OFFSET 0.068160 0.000000 0.000000
										CHANNELS 3 Xrotation Yrotation Zrotation
										End Site
										{
											OFFSET 0.000000 0.000000 0.000000
										}
									}
									JOINT LeftHandThumb1
									{
										OFFSET 0.027264 -0.045440 -0.018176
										CHANNELS 3 Xrotation Yrotation Zrotation
										End Site
										{
											OFFSET 0.000000 0.000000 0.000000
										}
									}
								}
							}
						}
					}
				}
			}
		}
	}
	JOINT RightUpLeg
	{
		OFFSET -0.086512 0.000000 -0.025273
		CHANNELS 3 Xrotation Yrotation Zrotation
		JOINT RightLeg
		{
			OFFSET 0.000000 0.000000 -0.433119
			CHANNELS 3 Xrotation Yrotation Zrotation
			JOINT RightFoot
			{
				OFFSET 0.000000 0.000000 -0.404688
				CHANNELS 3 Xrotation Yrotation Zrotation
				JOINT RightToeBase
				{
					OFFSET 0.000000 -0.126496 -0.046041
					CHANNELS 3 Xrotation Yrotation Zrotation
					End Site
					{
						OFFSET 0.000000 0.000000 0.000000
					}
				}
			}
		}
	}
	JOINT LeftUpLeg
	{
		OFFSET 0.086512 0.000000 -0.025273
		CHANNELS 3 Xrotation Yrotation Zrotation
		JOINT LeftLeg
		{
			OFFSET 0.000000 0.000000 -0.433119
			CHANNELS 3 Xrotation Yrotation Zrotation
			JOINT LeftFoot
			{
				OFFSET 0.000000 0.000000 -0.404688
				CHANNELS 3 Xrotation Yrotation Zrotation
				JOINT LeftToeBase
				{
					OFFSET 0.000000 -0.126496 -0.046041
					CHANNELS 3 Xrotation Yrotation Zrotation
					End Site
					{
						OFFSET 0.000000 0.000000 0.000000
					}
				}
			}
		}
	}
}
MOTION
Frames: 12
Frame Time: 0.033333
-0.011229 0.078699 0.917804 27.254500 -2.131000 177.388100 1.827300 -0.786400 -0.719400 0.131700 -0.716400 -0.046800 1.834300 -2.234100 1.412800 0.901600 -1.268200 1.124900 -0.184100 0.176200 4.568800 -0.881300 6.299800 4.135200 36.540100 20.622600 -17.404600 68.017500 -48.054200 60.520900 -0.000100 0.000100 108.683600 -23.699700 16.309100 2.295300 0.000000 0.000000 0.000000 0.000000 0.000000 0.000000 38.902100 -17.402200 12.795400 51.497400 47.152600 -53.214500 -0.000100 -0.000100 -102.511700 -20.686700 -15.559700 -10.603800 0.000000 0.000000 0.000000 0.000000 0.000000 0.000000 2.051400 1.591600 -10.078100 45.804700 0.000000 0.000000 -2.392500 -6.079700 -37.839800 11.556100 0.000000 0.000000 16.676100 -6.335600 13.825800 26.378700 0.000000 0.000000 -3.601800 13.830200 20.499700 -11.493600 0.000000 0.000000 
-0.009449 0.077775 0.926287 28.468200 -3.038500 176.877100 2.108900 -1.281400 -0.861000 0.340300 -0.810600 -0.061300 1.913200 -2.360000 1.507900 0.902300 -1.282800 1.144300 -1.370700 -0.163500 4.694800 -0.312300 6.385300 4.266900 35.816900 20.143900 -17.034700 67.807600 -47.409800 60.501700 -0.000100 0.000100 108.832400 -22.996100 16.134900 2.240000 0.000000 0.000000 0.000000 0.000000 0.000000 0.000000 38.617100 -16.692700 12.269800 50.177000 48.535400 -52.136500 -0.000100 -0.000100 -103.259700 -21.815900 -15.661100 -11.485700 0.000000 0.000000 0.000000 0.000000 0.000000 0.000000 -2.946500 0.137000 -9.167200 54.458400 0.000000 0.000000 -2.274400 -4.289500 -41.108500 18.686800 0.000000 0.000000 15.213400 -7.646900 13.932900 30.708200 0.000000 0.000000 1.492100 15.510400 21.258400 -15.697400 0.000000 0.000000 
-0.007623 0.076335 0.935073 29.922500 -3.860400 176.458700 2.482200 -1.754100 -0.941500 0.617200 -0.892500 -0.082000 2.079000 -2.453800 1.461900 0.936600 -1.241700 1.093300 -2.427600 -0.413100 4.860400 0.195100 6.604300 4.410100 35.216800 19.673600 -16.648100 67.319300 -46.936200 59.995600 -0.000100 0.000100 109.095500 -22.539000 15.824600 2.146400 0.000000 0.000000 0.000000 0.000000 0.000000 0.000000 38.246800 -15.906900 11.714800 48.674900 49.844900 -50.550300 -0.000100 -0.000100 -103.389300 -22.875300 -16.004000 -12.347600 0.000000 0.000000 0.000000 0.000000 0.000000 0.000000 -8.602000 -1.204300 -8.916300 64.086200 0.000000 0.000000 -3.796200 -3.610100 -41.982100 19.113100 0.000000 0.000000 12.958900 -9.013200 13.868700 35.980700 0.000000 0.000000 8.291000 17.249600 22.861800 -17.556900 0.000000 0.000000 
-0.006066 0.074694 0.943414 31.490300 -4.615400 176.286800 2.876600 -2.215500 -1.007800 0.927200 -0.990900 -0.115400 2.299000 -2.514000 1.237300 0.958400 -1.173900 0.975900 -3.329400 -0.641800 5.014500 0.630400 6.863600 4.561700 34.846700 19.148800 -16.256500 66.572400 -46.836300 59.083000 -0.000100 0.000100 109.247000 -22.810400 15.844800 2.232400 0.000000 0.000000 0.000000 0.000000 0.000000 0.000000 37.752500 -15.026000 11.160600 47.440500 50.857000 -49.012800 -0.000100 -0.000100 -102.891500 -23.732900 -16.473200 -12.996400 0.000000 0.000000 0.000000 0.000000 0.000000 0.000000 -14.648800 -2.399600 -9.141600 73.390100 0.000000 0.000000 -5.308100 -3.887500 -41.689500 16.786700 0.000000 0.000000 10.262200 -10.288300 13.232700 41.127200 0.000000 0.000000 15.416200 18.971700 25.435500 -13.181600 0.000000 0.000000 
-0.005436 0.073071 0.951255 32.944900 -5.017300 176.233600 3.105800 -2.447000 -1.061200 1.201000 -1.052600 -0.150000 2.589300 -2.538600 0.946600 0.993700 -1.102100 0.837300 -4.260500 -0.939100 5.132400 1.267500 7.092100 4.725600 34.572600 18.433000 -15.832000 65.656600 -46.918900 57.951800 -0.000100 0.000100 109.046300 -23.084300 16.034500 2.298200 0.000000 0.000000 0.000000 0.000000 0.000000 0.000000 37.164300 -13.892400 10.573400 46.574200 51.422300 -47.791200 -0.000100 -0.000100 -102.046200 -24.189800 -16.837300 -13.458800 0.000000 0.000000 0.000000 0.000000 0.000000 0.000000 -20.936600 -3.102100 -9.477500 81.350000 0.000000 0.000000 -5.939200 -3.963200 -41.286100 15.371500 0.000000 0.000000 7.179200 -10.906300 11.848500 46.114700 0.000000 0.000000 19.911800 20.588400 28.688500 -4.851800 0.000000 0.000000 
-0.006208 0.071283 0.958886 34.018000 -4.866900 176.254700 2.968200 -2.278900 -1.091000 1.319800 -1.055900 -0.180200 3.044800 -2.545300 0.644800 1.091800 -1.015300 0.703400 -5.518700 -1.415000 5.174700 2.430100 7.382800 4.904800 34.163400 17.409000 -15.303100 64.702600 -46.957100 56.722400 -0.000100 0.000100 108.626300 -22.665500 16.135700 2.132100 0.000000 0.000000 0.000000 0.000000 0.000000 0.000000 36.542000 -12.448700 9.924600 45.881600 51.486000 -46.725300 -0.000100 -0.000100 -101.100800 -24.098900 -17.023000 -13.800100 0.000000 0.000000 0.000000 0.000000 0.000000 0.000000 -27.347000 -3.108300 -9.606900 87.577200 0.000000 0.000000 -6.041700 -3.818800 -40.593400 14.719300 0.000000 0.000000 3.181400 -10.633200 10.026000 52.172200 0.000000 0.000000 19.619300 21.801500 32.387100 0.554500 0.000000 0.000000 
-0.007874 0.069383 0.966404 34.605900 -4.479400 176.414000 2.440000 -1.941200 -1.098000 1.239500 -1.023000 -0.204800 3.678500 -2.576400 0.369100 1.246900 -0.913000 0.592800 -7.210500 -2.126700 5.043200 4.114200 7.785700 5.051300 33.589100 16.152400 -14.705900 63.836300 -46.905200 55.446200 -0.000100 0.000100 108.346300 -22.021000 16.304900 1.949000 0.000000 0.000000 0.000000 0.000000 0.000000 0.000000 35.963500 -10.980000 9.304700 45.308700 51.176100 -45.716200 -0.000100 -0.000100 -100.133700 -23.609700 -17.021000 -14.007700 0.000000 0.000000 0.000000 0.000000 0.000000 0.000000 -33.588800 -2.825800 -9.475900 92.121600 0.000000 0.000000 -6.040100 -4.252700 -39.310600 13.590500 0.000000 0.000000 -1.973700 -9.966300 8.484200 59.984300 0.000000 0.000000 15.184200 22.056700 36.424900 1.170500 0.000000 0.000000 
-0.009439 0.067907 0.974169 34.948900 -4.258100 176.654800 1.762100 -1.694200 -1.076800 1.044600 -1.006100 -0.224100 4.405700 -2.604000 0.220300 1.412800 -0.811600 0.532700 -9.260500 -3.041200 4.649900 6.096000 8.165800 5.093800 32.989200 14.890500 -14.164900 63.117800 -46.866000 54.172000 -0.000100 0.000100 108.315300 -21.943400 16.728600 2.030600 0.000000 0.000000 0.000000 0.000000 0.000000 0.000000 35.469600 -9.868500 8.912900 44.947400 50.757500 -44.858500 -0.000100 -0.000100 -99.173900 -23.130000 -16.780900 -14.090900 0.000000 0.000000 0.000000 0.000000 0.000000 0.000000 -39.080800 -2.779500 -9.178700 95.236900 0.000000 0.000000 -5.944400 -5.130000 -37.949200 12.428400 0.000000 0.000000 -7.655200 -9.436400 7.693700 68.785300 0.000000 0.000000 9.565900 20.913200 40.020900 -0.491300 0.000000 0.000000 
-0.010648 0.066914 0.982762 35.299600 -4.183000 176.906400 1.149700 -1.520600 -1.027700 0.852500 -0.934700 -0.219800 5.149300 -2.613700 0.220100 1.552200 -0.701200 0.503300 -11.652100 -4.062100 4.004800 8.295700 8.414800 5.015000 32.405100 13.728300 -13.700500 62.414600 -46.886300 52.839700 -0.000100 0.000100 108.337700 -22.353600 17.212400 2.206200 0.000000 0.000000 0.000000 0.000000 0.000000 0.000000 35.029600 -9.182800 8.817500 44.617000 50.475800 -44.077300 -0.000100 -0.000100 -98.274100 -22.945300 -16.388200 -14.147800 0.000000 0.000000 0.000000 0.000000 0.000000 0.000000 -43.428000 -2.937400 -8.780400 97.312200 0.000000 0.000000 -5.781100 -5.520600 -37.110900 11.946900 0.000000 0.000000 -13.246200 -8.976500 7.479700 77.497800 0.000000 0.000000 5.476200 18.803600 41.939300 -1.674600 0.000000 0.000000 
-0.011991 0.065568 0.992124 35.550300 -4.057700 177.278800 0.578100 -1.300900 -0.964300 0.653700 -0.823900 -0.202600 5.865500 -2.561600 0.243100 1.669700 -0.554800 0.456900 -14.414800 -5.066900 3.210200 10.761400 8.630100 4.835600 31.687300 12.598000 -13.188000 61.576500 -46.870500 51.347400 -0.000100 0.000100 108.275300 -22.508400 17.379800 2.042700 0.000000 0.000000 0.000000 0.000000 0.000000 0.000000 34.549600 -8.714100 8.844600 43.912200 50.430500 -43.101800 -0.000100 -0.000100 -97.504700 -22.972400 -16.095900 -14.228400 0.000000 0.000000 0.000000 0.000000 0.000000 0.000000 -46.887500 -2.890500 -8.377700 98.810000 0.000000 0.000000 -5.640700 -5.280900 -36.716000 11.671000 0.000000 0.000000 -18.948000 -8.280800 7.437400 85.750900 0.000000 0.000000 3.514100 16.882200 41.774300 -2.215600 0.000000 0.000000 
-0.013627 0.063254 1.001758 35.583000 -3.897100 177.852700 -0.006600 -1.082700 -0.874700 0.418000 -0.702900 -0.185900 6.524700 -2.486500 0.195300 1.784700 -0.358700 0.372100 -17.398000 -5.959500 2.385700 13.421900 8.962000 4.587100 30.747500 11.427900 -12.538700 60.576100 -46.708100 49.710900 -0.000100 0.000100 108.210200 -22.038200 17.071900 1.462000 0.000000 0.000000 0.000000 0.000000 0.000000 0.000000 33.958100 -8.302000 8.786600 42.765900 50.553900 -41.898400 -0.000100 -0.000100 -96.961900 -23.009200 -16.029500 -14.315400 0.000000 0.000000 0.000000 0.000000 0.000000 0.000000 -49.858200 -2.502600 -8.089800 100.127600 0.000000 0.000000 -5.509000 -5.108300 -36.355500 11.194300 0.000000 0.000000 -25.060600 -7.353000 7.481400 93.486000 0.000000 0.000000 2.869200 15.958600 40.367400 -2.784900 0.000000 0.000000 
-0.015199 0.060170 1.011283 35.458100 -3.768500 178.475900 -0.587800 -0.921300 -0.757500 0.138800 -0.630600 -0.172900 7.127400 -2.346100 0.187000 1.914700 -0.162100 0.293000 -20.355500 -6.684900 1.614600 16.139100 9.383000 4.286000 29.713800 10.240900 -11.848700 59.501700 -46.449400 48.093000 -0.000100 0.000100 108.220800 -21.264900 16.412700 0.788800 0.000000 0.000000 0.000000 0.000000 0.000000 0.000000 33.265100 -7.936400 8.582900 41.627300 50.617600 -40.755200 -0.000100 -0.000100 -96.726000 -23.015900 -16.040900 -14.417400 0.000000 0.000000 0.000000 0.000000 0.000000 0.000000 -52.528100 -1.975800 -7.885500 101.541200 0.000000 0.000000 -5.352200 -5.270200 -35.835500 10.929900 0.000000 0.000000 -31.443700 -6.353400 7.834900 100.401300 0.000000 0.000000 2.777700 15.988700 38.873600 -2.891000 0.000000 0.000000 
